<mxfile host="app.diagrams.net" modified="2023-03-24T18:39:16.234Z" agent="Mozilla/5.0 (Windows NT 10.0; Win64; x64) AppleWebKit/537.36 (KHTML, like Gecko) Chrome/111.0.0.0 Safari/537.36 Edg/111.0.1661.51" etag="2ue_Yup3icNBagJO8Qpu" version="21.1.1" type="device">
  <diagram name="Страница 1" id="bcHjBq8vFUjoC3Ip_hAC">
    <mxGraphModel dx="792" dy="1138" grid="1" gridSize="10" guides="1" tooltips="1" connect="1" arrows="1" fold="1" page="1" pageScale="1" pageWidth="827" pageHeight="1169" math="0" shadow="0">
      <root>
        <mxCell id="0" />
        <mxCell id="1" parent="0" />
        <mxCell id="Ay9nRwgwtO-uqarOF3pG-3" style="edgeStyle=orthogonalEdgeStyle;rounded=0;orthogonalLoop=1;jettySize=auto;html=1;" edge="1" parent="1" source="Ay9nRwgwtO-uqarOF3pG-1" target="Ay9nRwgwtO-uqarOF3pG-2">
          <mxGeometry relative="1" as="geometry" />
        </mxCell>
        <mxCell id="Ay9nRwgwtO-uqarOF3pG-1" value="Начало&lt;br&gt;printTrainByNumber" style="ellipse;whiteSpace=wrap;html=1;" vertex="1" parent="1">
          <mxGeometry x="354" y="30" width="120" height="80" as="geometry" />
        </mxCell>
        <mxCell id="Ay9nRwgwtO-uqarOF3pG-6" style="edgeStyle=orthogonalEdgeStyle;rounded=0;orthogonalLoop=1;jettySize=auto;html=1;entryX=0.5;entryY=0;entryDx=0;entryDy=0;" edge="1" parent="1" source="Ay9nRwgwtO-uqarOF3pG-2" target="Ay9nRwgwtO-uqarOF3pG-4">
          <mxGeometry relative="1" as="geometry" />
        </mxCell>
        <mxCell id="Ay9nRwgwtO-uqarOF3pG-2" value="rewind(file)" style="rounded=0;whiteSpace=wrap;html=1;" vertex="1" parent="1">
          <mxGeometry x="354" y="130" width="120" height="60" as="geometry" />
        </mxCell>
        <mxCell id="Ay9nRwgwtO-uqarOF3pG-8" value="TRUE" style="edgeStyle=orthogonalEdgeStyle;rounded=0;orthogonalLoop=1;jettySize=auto;html=1;entryX=0.5;entryY=0;entryDx=0;entryDy=0;" edge="1" parent="1" source="Ay9nRwgwtO-uqarOF3pG-4" target="Ay9nRwgwtO-uqarOF3pG-7">
          <mxGeometry relative="1" as="geometry">
            <Array as="points">
              <mxPoint x="299" y="250" />
            </Array>
          </mxGeometry>
        </mxCell>
        <mxCell id="Ay9nRwgwtO-uqarOF3pG-15" value="FALSE" style="edgeStyle=orthogonalEdgeStyle;rounded=0;orthogonalLoop=1;jettySize=auto;html=1;entryX=0.594;entryY=-0.039;entryDx=0;entryDy=0;entryPerimeter=0;" edge="1" parent="1" source="Ay9nRwgwtO-uqarOF3pG-4" target="Ay9nRwgwtO-uqarOF3pG-14">
          <mxGeometry relative="1" as="geometry">
            <Array as="points">
              <mxPoint x="570" y="250" />
              <mxPoint x="570" y="288" />
            </Array>
          </mxGeometry>
        </mxCell>
        <mxCell id="Ay9nRwgwtO-uqarOF3pG-4" value="&lt;div style=&quot;font-size: 14px; line-height: 19px;&quot;&gt;&lt;span style=&quot;background-color: rgb(255, 255, 255);&quot;&gt;fread(&amp;amp;train, sizeof(struct TRAIN), 1, file)&lt;/span&gt;&lt;/div&gt;" style="rhombus;whiteSpace=wrap;html=1;" vertex="1" parent="1">
          <mxGeometry x="339" y="210" width="150" height="80" as="geometry" />
        </mxCell>
        <mxCell id="Ay9nRwgwtO-uqarOF3pG-10" value="TRUE" style="edgeStyle=orthogonalEdgeStyle;rounded=0;orthogonalLoop=1;jettySize=auto;html=1;entryX=0.5;entryY=0;entryDx=0;entryDy=0;" edge="1" parent="1" source="Ay9nRwgwtO-uqarOF3pG-7" target="Ay9nRwgwtO-uqarOF3pG-9">
          <mxGeometry relative="1" as="geometry">
            <Array as="points">
              <mxPoint x="180" y="330" />
            </Array>
          </mxGeometry>
        </mxCell>
        <mxCell id="Ay9nRwgwtO-uqarOF3pG-11" value="FALSE" style="edgeStyle=orthogonalEdgeStyle;rounded=0;orthogonalLoop=1;jettySize=auto;html=1;entryX=0.5;entryY=1;entryDx=0;entryDy=0;" edge="1" parent="1" source="Ay9nRwgwtO-uqarOF3pG-7" target="Ay9nRwgwtO-uqarOF3pG-4">
          <mxGeometry relative="1" as="geometry">
            <Array as="points">
              <mxPoint x="414" y="330" />
            </Array>
          </mxGeometry>
        </mxCell>
        <mxCell id="Ay9nRwgwtO-uqarOF3pG-7" value="train.number ==number" style="rhombus;whiteSpace=wrap;html=1;" vertex="1" parent="1">
          <mxGeometry x="240" y="290" width="120" height="80" as="geometry" />
        </mxCell>
        <mxCell id="Ay9nRwgwtO-uqarOF3pG-17" style="edgeStyle=orthogonalEdgeStyle;rounded=0;orthogonalLoop=1;jettySize=auto;html=1;entryX=0.5;entryY=0;entryDx=0;entryDy=0;" edge="1" parent="1" source="Ay9nRwgwtO-uqarOF3pG-9" target="Ay9nRwgwtO-uqarOF3pG-16">
          <mxGeometry relative="1" as="geometry" />
        </mxCell>
        <mxCell id="Ay9nRwgwtO-uqarOF3pG-9" value="printTrain(train)" style="rounded=0;whiteSpace=wrap;html=1;" vertex="1" parent="1">
          <mxGeometry x="120" y="370" width="120" height="60" as="geometry" />
        </mxCell>
        <mxCell id="Ay9nRwgwtO-uqarOF3pG-18" style="edgeStyle=orthogonalEdgeStyle;rounded=0;orthogonalLoop=1;jettySize=auto;html=1;" edge="1" parent="1" source="Ay9nRwgwtO-uqarOF3pG-14">
          <mxGeometry relative="1" as="geometry">
            <mxPoint x="410" y="400" as="targetPoint" />
            <Array as="points">
              <mxPoint x="560" y="400" />
            </Array>
          </mxGeometry>
        </mxCell>
        <mxCell id="Ay9nRwgwtO-uqarOF3pG-14" value="&quot;No train&quot;" style="shape=parallelogram;perimeter=parallelogramPerimeter;whiteSpace=wrap;html=1;fixedSize=1;" vertex="1" parent="1">
          <mxGeometry x="500" y="300" width="120" height="60" as="geometry" />
        </mxCell>
        <mxCell id="Ay9nRwgwtO-uqarOF3pG-16" value="Конец" style="ellipse;whiteSpace=wrap;html=1;" vertex="1" parent="1">
          <mxGeometry x="354" y="440" width="120" height="80" as="geometry" />
        </mxCell>
      </root>
    </mxGraphModel>
  </diagram>
</mxfile>
